<svg width="16" height="15" viewBox="0 0 16 15" fill="none" xmlns="http://www.w3.org/2000/svg">
<path d="M15.2812 13.625C15.4271 13.7708 15.5 13.9583 15.5 14.1875C15.5 14.4167 15.4167 14.6146 15.25 14.7812C15.1042 14.9271 14.9167 15 14.6875 15C14.4583 15 14.2708 14.9271 14.125 14.7812L11 11.6562C10.4583 12.0729 9.84375 12.4062 9.15625 12.6562C8.48958 12.8854 7.77083 13 7 13C6.08333 13 5.22917 12.8333 4.4375 12.5C3.64583 12.1667 2.95833 11.7083 2.375 11.125C1.79167 10.5417 1.33333 9.85417 1 9.0625C0.666667 8.27083 0.5 7.41667 0.5 6.5C0.5 5.58333 0.666667 4.72917 1 3.9375C1.33333 3.14583 1.79167 2.45833 2.375 1.875C2.95833 1.29167 3.64583 0.833333 4.4375 0.5C5.22917 0.166667 6.08333 0 7 0C7.91667 0 8.77083 0.166667 9.5625 0.5C10.3542 0.833333 11.0417 1.29167 11.625 1.875C12.2083 2.45833 12.6667 3.14583 13 3.9375C13.3333 4.72917 13.5 5.58333 13.5 6.5C13.5 7.27083 13.375 8 13.125 8.6875C12.8958 9.35417 12.5729 9.95833 12.1562 10.5L15.2812 13.625ZM7 11.4062C7.6875 11.4062 8.32292 11.2812 8.90625 11.0312C9.51042 10.7812 10.0312 10.4375 10.4688 10C10.9271 9.54167 11.2812 9.02083 11.5312 8.4375C11.7812 7.83333 11.9062 7.1875 11.9062 6.5C11.9062 5.8125 11.7812 5.17708 11.5312 4.59375C11.2812 3.98958 10.9271 3.46875 10.4688 3.03125C10.0312 2.57292 9.51042 2.21875 8.90625 1.96875C8.32292 1.71875 7.6875 1.59375 7 1.59375C6.3125 1.59375 5.66667 1.71875 5.0625 1.96875C4.47917 2.21875 3.95833 2.57292 3.5 3.03125C3.0625 3.46875 2.71875 3.98958 2.46875 4.59375C2.21875 5.17708 2.09375 5.8125 2.09375 6.5C2.09375 7.1875 2.21875 7.83333 2.46875 8.4375C2.71875 9.02083 3.0625 9.54167 3.5 10C3.95833 10.4375 4.47917 10.7812 5.0625 11.0312C5.66667 11.2812 6.3125 11.4062 7 11.4062Z" fill="#1D2D3E"/>
</svg>
